<svg xmlns="http://www.w3.org/2000/svg" xmlns:xlink="http://www.w3.org/1999/xlink" width="500" zoomAndPan="magnify" viewBox="0 0 375 374.999991" height="500" preserveAspectRatio="xMidYMid meet" version="1.2"><defs><clipPath id="774a075cfd"><path d="M 48 5 L 326 5 L 326 363 L 48 363 Z M 48 5 "/></clipPath><clipPath id="0ced92369c"><path d="M 28.011719 35.074219 L 301.714844 -5.878906 L 353.65625 341.257812 L 79.949219 382.210938 Z M 28.011719 35.074219 "/></clipPath><clipPath id="77911d32d6"><path d="M 28.011719 35.074219 L 301.714844 -5.878906 L 353.65625 341.257812 L 79.949219 382.210938 Z M 28.011719 35.074219 "/></clipPath><clipPath id="e4d29891ab"><path d="M 124 136 L 252 136 L 252 319 L 124 319 Z M 124 136 "/></clipPath><clipPath id="1c106a4b02"><path d="M 28.011719 35.074219 L 301.714844 -5.878906 L 353.65625 341.257812 L 79.949219 382.210938 Z M 28.011719 35.074219 "/></clipPath><clipPath id="3efb21e7d6"><path d="M 28.011719 35.074219 L 301.714844 -5.878906 L 353.65625 341.257812 L 79.949219 382.210938 Z M 28.011719 35.074219 "/></clipPath></defs><g id="7449c9945a"><g style="fill:#ffffff;fill-opacity:1;"><g transform="translate(72.590182, 180.680932)"><path style="stroke:none" d="M 0.5625 -12.5625 L 0.5625 -14.0625 C 0.5625 -14.34375 0.703125 -14.484375 0.984375 -14.484375 L 10.90625 -14.484375 C 11.03125 -14.484375 11.128906 -14.441406 11.203125 -14.359375 C 11.273438 -14.285156 11.3125 -14.1875 11.3125 -14.0625 L 11.3125 -12.5625 C 11.3125 -12.269531 11.175781 -12.125 10.90625 -12.125 L 7.28125 -12.125 L 7.28125 -0.40625 C 7.28125 -0.125 7.132812 0.015625 6.84375 0.015625 L 5 0.015625 C 4.726562 0.015625 4.59375 -0.125 4.59375 -0.40625 L 4.59375 -12.125 L 0.984375 -12.125 C 0.859375 -12.125 0.753906 -12.160156 0.671875 -12.234375 C 0.597656 -12.304688 0.5625 -12.414062 0.5625 -12.5625 Z M 0.5625 -12.5625 "/></g></g><g style="fill:#ffffff;fill-opacity:1;"><g transform="translate(94.820759, 180.680932)"><path style="stroke:none" d="M 12.21875 -2.5625 C 12.394531 -2.5625 12.535156 -2.507812 12.640625 -2.40625 C 12.742188 -2.3125 12.796875 -2.179688 12.796875 -2.015625 L 12.796875 -0.421875 C 12.796875 -0.296875 12.753906 -0.191406 12.671875 -0.109375 C 12.597656 -0.0351562 12.492188 0 12.359375 0 L 2.15625 0 C 1.863281 0 1.71875 -0.140625 1.71875 -0.421875 L 1.71875 -14.0625 C 1.71875 -14.34375 1.863281 -14.484375 2.15625 -14.484375 L 12.15625 -14.484375 C 12.300781 -14.484375 12.410156 -14.441406 12.484375 -14.359375 C 12.554688 -14.285156 12.59375 -14.1875 12.59375 -14.0625 L 12.59375 -12.375 C 12.59375 -12.082031 12.445312 -11.9375 12.15625 -11.9375 L 4.421875 -11.9375 L 4.421875 -7.9375 L 10.484375 -7.9375 C 10.640625 -7.9375 10.757812 -7.894531 10.84375 -7.8125 C 10.9375 -7.738281 10.984375 -7.628906 10.984375 -7.484375 L 10.984375 -5.890625 C 10.984375 -5.765625 10.9375 -5.660156 10.84375 -5.578125 C 10.757812 -5.503906 10.640625 -5.46875 10.484375 -5.46875 L 4.421875 -5.46875 L 4.421875 -2.5625 Z M 12.21875 -2.5625 "/></g></g><g style="fill:#ffffff;fill-opacity:1;"><g transform="translate(118.938952, 180.680932)"><path style="stroke:none" d="M 11.296875 -3.484375 C 11.421875 -3.566406 11.546875 -3.601562 11.671875 -3.59375 C 11.796875 -3.59375 11.890625 -3.550781 11.953125 -3.46875 L 13.03125 -1.796875 C 13.082031 -1.734375 13.085938 -1.644531 13.046875 -1.53125 C 13.015625 -1.425781 12.945312 -1.335938 12.84375 -1.265625 C 12.457031 -0.960938 12.015625 -0.695312 11.515625 -0.46875 C 11.023438 -0.25 10.515625 -0.078125 9.984375 0.046875 C 9.453125 0.171875 8.941406 0.234375 8.453125 0.234375 C 7.609375 0.234375 6.800781 0.113281 6.03125 -0.125 C 5.269531 -0.375 4.570312 -0.722656 3.9375 -1.171875 C 3.3125 -1.628906 2.769531 -2.164062 2.3125 -2.78125 C 1.851562 -3.40625 1.492188 -4.09375 1.234375 -4.84375 C 0.984375 -5.59375 0.859375 -6.390625 0.859375 -7.234375 C 0.859375 -8.066406 0.984375 -8.859375 1.234375 -9.609375 C 1.492188 -10.359375 1.851562 -11.046875 2.3125 -11.671875 C 2.769531 -12.296875 3.3125 -12.832031 3.9375 -13.28125 C 4.570312 -13.738281 5.269531 -14.085938 6.03125 -14.328125 C 6.800781 -14.578125 7.609375 -14.703125 8.453125 -14.703125 C 8.929688 -14.703125 9.4375 -14.640625 9.96875 -14.515625 C 10.507812 -14.398438 11.03125 -14.226562 11.53125 -14 C 12.039062 -13.78125 12.492188 -13.507812 12.890625 -13.1875 C 13.015625 -13.101562 13.082031 -13.007812 13.09375 -12.90625 C 13.101562 -12.800781 13.082031 -12.710938 13.03125 -12.640625 L 11.953125 -11 C 11.898438 -10.914062 11.8125 -10.863281 11.6875 -10.84375 C 11.570312 -10.832031 11.453125 -10.878906 11.328125 -10.984375 C 10.929688 -11.316406 10.472656 -11.570312 9.953125 -11.75 C 9.441406 -11.9375 8.941406 -12.03125 8.453125 -12.03125 C 7.765625 -12.03125 7.125 -11.90625 6.53125 -11.65625 C 5.9375 -11.414062 5.414062 -11.070312 4.96875 -10.625 C 4.519531 -10.1875 4.171875 -9.675781 3.921875 -9.09375 C 3.671875 -8.519531 3.546875 -7.898438 3.546875 -7.234375 C 3.546875 -6.566406 3.671875 -5.941406 3.921875 -5.359375 C 4.179688 -4.773438 4.535156 -4.265625 4.984375 -3.828125 C 5.429688 -3.398438 5.945312 -3.0625 6.53125 -2.8125 C 7.125 -2.570312 7.765625 -2.453125 8.453125 -2.453125 C 8.921875 -2.453125 9.410156 -2.539062 9.921875 -2.71875 C 10.441406 -2.90625 10.898438 -3.160156 11.296875 -3.484375 Z M 11.296875 -3.484375 "/></g></g><g style="fill:#ffffff;fill-opacity:1;"><g transform="translate(143.333625, 180.680932)"><path style="stroke:none" d="M 14 -14.5 C 14.21875 -14.5 14.328125 -14.394531 14.328125 -14.1875 L 14.328125 -0.3125 C 14.328125 -0.09375 14.21875 0.015625 14 0.015625 L 11.9375 0.015625 C 11.738281 0.015625 11.640625 -0.09375 11.640625 -0.3125 L 11.640625 -4.609375 L 4.421875 -4.609375 L 4.421875 -0.3125 C 4.421875 -0.09375 4.316406 0.015625 4.109375 0.015625 L 2.046875 0.015625 C 1.828125 0.015625 1.71875 -0.09375 1.71875 -0.3125 L 1.71875 -14.1875 C 1.71875 -14.394531 1.828125 -14.5 2.046875 -14.5 L 4.109375 -14.5 C 4.316406 -14.5 4.421875 -14.394531 4.421875 -14.1875 L 4.421875 -6.96875 L 11.640625 -6.96875 L 11.640625 -14.1875 C 11.640625 -14.394531 11.738281 -14.5 11.9375 -14.5 Z M 14 -14.5 "/></g></g><g style="fill:#ffffff;fill-opacity:1;"><g transform="translate(169.730315, 180.680932)"><path style="stroke:none" d="M 14.3125 -14.5 C 14.519531 -14.5 14.625 -14.394531 14.625 -14.1875 L 14.625 -0.25 C 14.625 -0.113281 14.585938 -0.0078125 14.515625 0.0625 C 14.441406 0.144531 14.351562 0.1875 14.25 0.1875 L 14.234375 0.1875 C 14.117188 0.1875 14.019531 0.148438 13.9375 0.078125 C 13.851562 0.015625 13.753906 -0.0625 13.640625 -0.15625 L 4.421875 -8.90625 L 4.421875 -0.3125 C 4.421875 -0.09375 4.316406 0.015625 4.109375 0.015625 L 2.046875 0.015625 C 1.828125 0.015625 1.71875 -0.09375 1.71875 -0.3125 L 1.71875 -14.25 C 1.71875 -14.375 1.75 -14.472656 1.8125 -14.546875 C 1.882812 -14.628906 1.972656 -14.671875 2.078125 -14.671875 L 2.109375 -14.671875 C 2.210938 -14.671875 2.300781 -14.632812 2.375 -14.5625 C 2.457031 -14.5 2.550781 -14.421875 2.65625 -14.328125 L 11.9375 -5.546875 L 11.9375 -14.1875 C 11.9375 -14.394531 12.039062 -14.5 12.25 -14.5 Z M 14.3125 -14.5 "/></g></g><g style="fill:#ffffff;fill-opacity:1;"><g transform="translate(196.432074, 180.680932)"><path style="stroke:none" d="M 0.859375 -7.21875 C 0.859375 -8.0625 0.984375 -8.859375 1.234375 -9.609375 C 1.484375 -10.359375 1.832031 -11.039062 2.28125 -11.65625 C 2.738281 -12.28125 3.28125 -12.820312 3.90625 -13.28125 C 4.53125 -13.738281 5.21875 -14.085938 5.96875 -14.328125 C 6.726562 -14.578125 7.53125 -14.703125 8.375 -14.703125 C 9.207031 -14.703125 10.003906 -14.578125 10.765625 -14.328125 C 11.523438 -14.085938 12.210938 -13.738281 12.828125 -13.28125 C 13.453125 -12.820312 13.992188 -12.28125 14.453125 -11.65625 C 14.910156 -11.039062 15.265625 -10.359375 15.515625 -9.609375 C 15.765625 -8.859375 15.890625 -8.0625 15.890625 -7.21875 C 15.890625 -6.375 15.765625 -5.578125 15.515625 -4.828125 C 15.265625 -4.078125 14.910156 -3.394531 14.453125 -2.78125 C 13.992188 -2.164062 13.453125 -1.628906 12.828125 -1.171875 C 12.210938 -0.722656 11.523438 -0.375 10.765625 -0.125 C 10.003906 0.113281 9.207031 0.234375 8.375 0.234375 C 7.53125 0.234375 6.726562 0.113281 5.96875 -0.125 C 5.21875 -0.375 4.53125 -0.722656 3.90625 -1.171875 C 3.28125 -1.628906 2.738281 -2.164062 2.28125 -2.78125 C 1.832031 -3.394531 1.484375 -4.078125 1.234375 -4.828125 C 0.984375 -5.578125 0.859375 -6.375 0.859375 -7.21875 Z M 3.546875 -7.21875 C 3.546875 -6.539062 3.664062 -5.914062 3.90625 -5.34375 C 4.15625 -4.769531 4.5 -4.265625 4.9375 -3.828125 C 5.382812 -3.398438 5.898438 -3.0625 6.484375 -2.8125 C 7.066406 -2.570312 7.695312 -2.453125 8.375 -2.453125 C 9.050781 -2.453125 9.679688 -2.570312 10.265625 -2.8125 C 10.847656 -3.0625 11.359375 -3.398438 11.796875 -3.828125 C 12.242188 -4.265625 12.585938 -4.769531 12.828125 -5.34375 C 13.078125 -5.914062 13.203125 -6.539062 13.203125 -7.21875 C 13.203125 -7.894531 13.078125 -8.523438 12.828125 -9.109375 C 12.578125 -9.691406 12.234375 -10.203125 11.796875 -10.640625 C 11.359375 -11.078125 10.847656 -11.414062 10.265625 -11.65625 C 9.679688 -11.90625 9.050781 -12.03125 8.375 -12.03125 C 7.695312 -12.03125 7.066406 -11.90625 6.484375 -11.65625 C 5.898438 -11.414062 5.390625 -11.078125 4.953125 -10.640625 C 4.515625 -10.203125 4.171875 -9.691406 3.921875 -9.109375 C 3.671875 -8.523438 3.546875 -7.894531 3.546875 -7.21875 Z M 3.546875 -7.21875 "/></g></g><g style="fill:#ffffff;fill-opacity:1;"><g transform="translate(223.524692, 180.680932)"><path style="stroke:none" d="M 10.96875 -2.359375 C 11.175781 -2.359375 11.28125 -2.253906 11.28125 -2.046875 L 11.28125 -0.328125 C 11.28125 -0.109375 11.175781 0 10.96875 0 L 2.046875 0 C 1.828125 0 1.71875 -0.109375 1.71875 -0.328125 L 1.71875 -14.1875 C 1.71875 -14.394531 1.828125 -14.5 2.046875 -14.5 L 4.109375 -14.5 C 4.316406 -14.5 4.421875 -14.394531 4.421875 -14.1875 L 4.421875 -2.359375 Z M 10.96875 -2.359375 "/></g></g><g style="fill:#ffffff;fill-opacity:1;"><g transform="translate(245.526467, 180.680932)"><path style="stroke:none" d="M 0.859375 -7.21875 C 0.859375 -8.0625 0.984375 -8.859375 1.234375 -9.609375 C 1.484375 -10.359375 1.832031 -11.039062 2.28125 -11.65625 C 2.738281 -12.28125 3.28125 -12.820312 3.90625 -13.28125 C 4.53125 -13.738281 5.21875 -14.085938 5.96875 -14.328125 C 6.726562 -14.578125 7.53125 -14.703125 8.375 -14.703125 C 9.207031 -14.703125 10.003906 -14.578125 10.765625 -14.328125 C 11.523438 -14.085938 12.210938 -13.738281 12.828125 -13.28125 C 13.453125 -12.820312 13.992188 -12.28125 14.453125 -11.65625 C 14.910156 -11.039062 15.265625 -10.359375 15.515625 -9.609375 C 15.765625 -8.859375 15.890625 -8.0625 15.890625 -7.21875 C 15.890625 -6.375 15.765625 -5.578125 15.515625 -4.828125 C 15.265625 -4.078125 14.910156 -3.394531 14.453125 -2.78125 C 13.992188 -2.164062 13.453125 -1.628906 12.828125 -1.171875 C 12.210938 -0.722656 11.523438 -0.375 10.765625 -0.125 C 10.003906 0.113281 9.207031 0.234375 8.375 0.234375 C 7.53125 0.234375 6.726562 0.113281 5.96875 -0.125 C 5.21875 -0.375 4.53125 -0.722656 3.90625 -1.171875 C 3.28125 -1.628906 2.738281 -2.164062 2.28125 -2.78125 C 1.832031 -3.394531 1.484375 -4.078125 1.234375 -4.828125 C 0.984375 -5.578125 0.859375 -6.375 0.859375 -7.21875 Z M 3.546875 -7.21875 C 3.546875 -6.539062 3.664062 -5.914062 3.90625 -5.34375 C 4.15625 -4.769531 4.5 -4.265625 4.9375 -3.828125 C 5.382812 -3.398438 5.898438 -3.0625 6.484375 -2.8125 C 7.066406 -2.570312 7.695312 -2.453125 8.375 -2.453125 C 9.050781 -2.453125 9.679688 -2.570312 10.265625 -2.8125 C 10.847656 -3.0625 11.359375 -3.398438 11.796875 -3.828125 C 12.242188 -4.265625 12.585938 -4.769531 12.828125 -5.34375 C 13.078125 -5.914062 13.203125 -6.539062 13.203125 -7.21875 C 13.203125 -7.894531 13.078125 -8.523438 12.828125 -9.109375 C 12.578125 -9.691406 12.234375 -10.203125 11.796875 -10.640625 C 11.359375 -11.078125 10.847656 -11.414062 10.265625 -11.65625 C 9.679688 -11.90625 9.050781 -12.03125 8.375 -12.03125 C 7.695312 -12.03125 7.066406 -11.90625 6.484375 -11.65625 C 5.898438 -11.414062 5.390625 -11.078125 4.953125 -10.640625 C 4.515625 -10.203125 4.171875 -9.691406 3.921875 -9.109375 C 3.671875 -8.523438 3.546875 -7.894531 3.546875 -7.21875 Z M 3.546875 -7.21875 "/></g></g><g style="fill:#ffffff;fill-opacity:1;"><g transform="translate(272.619085, 180.680932)"><path style="stroke:none" d="M 13.109375 -7.375 C 13.316406 -7.375 13.421875 -7.265625 13.421875 -7.046875 L 13.421875 -1.609375 C 13.421875 -1.523438 13.398438 -1.4375 13.359375 -1.34375 C 13.316406 -1.257812 13.257812 -1.191406 13.1875 -1.140625 C 12.90625 -0.941406 12.578125 -0.757812 12.203125 -0.59375 C 11.835938 -0.4375 11.441406 -0.296875 11.015625 -0.171875 C 10.585938 -0.046875 10.15625 0.0507812 9.71875 0.125 C 9.28125 0.195312 8.859375 0.234375 8.453125 0.234375 C 7.609375 0.234375 6.800781 0.113281 6.03125 -0.125 C 5.269531 -0.375 4.570312 -0.722656 3.9375 -1.171875 C 3.3125 -1.628906 2.765625 -2.164062 2.296875 -2.78125 C 1.835938 -3.40625 1.484375 -4.09375 1.234375 -4.84375 C 0.984375 -5.59375 0.859375 -6.390625 0.859375 -7.234375 C 0.859375 -8.078125 0.984375 -8.875 1.234375 -9.625 C 1.484375 -10.375 1.835938 -11.054688 2.296875 -11.671875 C 2.765625 -12.296875 3.3125 -12.832031 3.9375 -13.28125 C 4.570312 -13.738281 5.269531 -14.085938 6.03125 -14.328125 C 6.789062 -14.578125 7.59375 -14.703125 8.4375 -14.703125 C 8.925781 -14.703125 9.4375 -14.644531 9.96875 -14.53125 C 10.507812 -14.425781 11.03125 -14.265625 11.53125 -14.046875 C 12.039062 -13.828125 12.492188 -13.554688 12.890625 -13.234375 C 12.984375 -13.148438 13.035156 -13.050781 13.046875 -12.9375 C 13.066406 -12.832031 13.046875 -12.734375 12.984375 -12.640625 L 11.9375 -11.046875 C 11.863281 -10.953125 11.769531 -10.898438 11.65625 -10.890625 C 11.550781 -10.878906 11.453125 -10.914062 11.359375 -11 C 11.066406 -11.25 10.753906 -11.445312 10.421875 -11.59375 C 10.085938 -11.75 9.75 -11.859375 9.40625 -11.921875 C 9.0625 -11.992188 8.742188 -12.03125 8.453125 -12.03125 C 7.765625 -12.03125 7.125 -11.90625 6.53125 -11.65625 C 5.9375 -11.414062 5.414062 -11.078125 4.96875 -10.640625 C 4.53125 -10.210938 4.1875 -9.707031 3.9375 -9.125 C 3.6875 -8.539062 3.5625 -7.910156 3.5625 -7.234375 C 3.5625 -6.554688 3.679688 -5.921875 3.921875 -5.328125 C 4.160156 -4.734375 4.5 -4.210938 4.9375 -3.765625 C 5.375 -3.316406 5.890625 -2.96875 6.484375 -2.71875 C 7.078125 -2.46875 7.734375 -2.34375 8.453125 -2.34375 C 8.703125 -2.34375 8.972656 -2.375 9.265625 -2.4375 C 9.566406 -2.5 9.859375 -2.582031 10.140625 -2.6875 C 10.421875 -2.800781 10.660156 -2.925781 10.859375 -3.0625 L 10.859375 -5.125 L 8.375 -5.125 C 8.175781 -5.125 8.078125 -5.226562 8.078125 -5.4375 L 8.078125 -7.046875 C 8.078125 -7.265625 8.175781 -7.375 8.375 -7.375 Z M 13.109375 -7.375 "/></g></g><g style="fill:#ffffff;fill-opacity:1;"><g transform="translate(297.642963, 180.680932)"><path style="stroke:none" d="M 12.171875 -14.5 C 12.316406 -14.5 12.414062 -14.453125 12.46875 -14.359375 C 12.53125 -14.273438 12.53125 -14.15625 12.46875 -14 L 7.71875 -5.734375 L 7.71875 -0.421875 C 7.71875 -0.128906 7.582031 0.015625 7.3125 0.015625 L 5.453125 0.015625 C 5.160156 0.015625 5.015625 -0.128906 5.015625 -0.421875 L 5.015625 -5.75 L 0.28125 -14 C 0.21875 -14.164062 0.210938 -14.289062 0.265625 -14.375 C 0.328125 -14.457031 0.429688 -14.5 0.578125 -14.5 L 2.75 -14.5 C 2.84375 -14.5 2.9375 -14.460938 3.03125 -14.390625 C 3.125 -14.328125 3.195312 -14.242188 3.25 -14.140625 L 6.375 -8.484375 L 9.484375 -14.140625 C 9.617188 -14.378906 9.796875 -14.5 10.015625 -14.5 Z M 12.171875 -14.5 "/></g></g><g clip-rule="nonzero" clip-path="url(#774a075cfd)"><g clip-rule="nonzero" clip-path="url(#0ced92369c)"><g clip-rule="nonzero" clip-path="url(#77911d32d6)"><path style=" stroke:none;fill-rule:evenodd;fill:#283389;fill-opacity:1;" d="M 301.753906 89.160156 C 294.347656 65.511719 281.253906 36.765625 266.753906 20.375 C 260.234375 13.007812 253.160156 7.816406 245.699219 5.996094 C 236.921875 3.851562 228.453125 6.089844 220.785156 14.261719 C 213.554688 21.960938 207.046875 35.746094 201.84375 57.519531 L 141.714844 66.515625 C 130.371094 47.21875 120.113281 35.953125 110.941406 30.699219 C 101.21875 25.128906 92.476562 25.460938 84.703125 30.085938 C 78.105469 34.007812 72.851562 41.042969 68.777344 49.996094 C 59.652344 70.066406 55.546875 101.722656 55.449219 126.59375 C 49.132812 141.960938 46.738281 159.144531 49.363281 176.679688 L 50.773438 186.105469 C 56.597656 225.042969 85.566406 255.085938 121.589844 264.328125 C 121.492188 271.820312 121.929688 279.066406 122.902344 286.003906 C 125.808594 306.851562 133.5 324.742188 145.398438 338.011719 C 157.613281 351.636719 174.046875 360.277344 194.09375 362.191406 C 201.136719 362.863281 208.667969 362.6875 216.664062 361.570312 L 216.808594 361.550781 C 224.78125 360.273438 232.035156 358.242188 238.574219 355.535156 C 257.183594 347.828125 270.367188 334.765625 278.058594 318.164062 C 285.546875 302 287.671875 282.640625 284.347656 261.847656 C 283.242188 254.9375 281.546875 247.878906 279.261719 240.746094 C 289.882812 234.265625 299.066406 225.78125 306.367188 215.921875 C 320.894531 196.292969 327.957031 171.140625 324.082031 145.21875 L 322.671875 135.796875 C 320.007812 118.011719 312.53125 102.089844 301.753906 89.160156 Z M 234.628906 27.242188 C 237 24.71875 239.214844 23.929688 241.234375 24.429688 C 244.589844 25.246094 248.457031 28.363281 252.53125 32.972656 C 259.652344 41.027344 266.476562 52.796875 272.28125 65.410156 C 268.476562 63.425781 264.527344 61.695312 260.472656 60.222656 C 260.472656 60.222656 260.480469 60.222656 260.480469 60.222656 C 250.171875 39.933594 239.171875 30.972656 231.992188 54.667969 C 228.726562 54.542969 225.4375 54.585938 222.117188 54.804688 C 225.96875 40.75 230.203125 31.945312 234.628906 27.242188 Z M 86.070312 57.871094 C 88.617188 52.269531 91.40625 48.164062 94.371094 46.394531 C 96.167969 45.324219 98.515625 45.433594 101.511719 47.152344 C 107.113281 50.363281 113.75 57.539062 121.554688 69.859375 C 118.949219 70.480469 116.382812 71.207031 113.871094 72.03125 C 100.429688 52.230469 92.625 63.246094 88.65625 84.785156 C 84.367188 87.832031 80.351562 91.222656 76.648438 94.902344 C 78.503906 81.0625 81.59375 67.707031 86.070312 57.871094 Z M 260.835938 310.195312 C 255.15625 322.464844 245.3125 332.167969 231.355469 337.945312 C 226.078125 340.125 220.269531 341.761719 213.929688 342.785156 C 207.566406 343.664062 201.535156 343.804688 195.847656 343.257812 C 180.8125 341.816406 168.558594 335.421875 159.535156 325.351562 C 150.191406 314.933594 144.085938 300.476562 141.699219 283.339844 C 140.980469 278.195312 140.605469 272.796875 140.582031 267.179688 C 146.671875 267.46875 152.875 267.171875 159.117188 266.238281 L 194.339844 260.96875 L 196.769531 277.191406 C 193 279.015625 189.785156 281.730469 187.355469 285.015625 C 183.457031 290.285156 181.566406 297.046875 182.609375 304.039062 C 183.65625 311.03125 187.4375 316.941406 192.714844 320.839844 C 197.984375 324.738281 204.746094 326.628906 211.738281 325.582031 C 218.730469 324.535156 224.644531 320.757812 228.539062 315.480469 C 232.4375 310.207031 234.332031 303.449219 233.285156 296.457031 C 232.238281 289.464844 228.449219 283.550781 223.179688 279.652344 C 219.898438 277.226562 216.027344 275.570312 211.890625 274.929688 L 209.460938 258.707031 L 243.925781 253.550781 C 250.175781 252.613281 256.1875 251.085938 261.933594 249.023438 C 263.554688 254.398438 264.765625 259.664062 265.59375 264.792969 C 268.328125 281.878906 266.722656 297.488281 260.835938 310.195312 Z M 205.285156 282.460938 C 210.199219 281.726562 214.945312 283.054688 218.652344 285.796875 C 222.351562 288.539062 225.007812 292.6875 225.742188 297.601562 C 226.476562 302.511719 225.152344 307.257812 222.417969 310.964844 C 219.675781 314.671875 215.527344 317.328125 210.613281 318.0625 C 205.703125 318.796875 200.957031 317.472656 197.25 314.730469 C 193.542969 311.996094 190.894531 307.835938 190.15625 302.925781 C 189.421875 298.011719 190.75 293.265625 193.484375 289.5625 C 196.226562 285.855469 200.375 283.195312 205.285156 282.460938 Z M 305.230469 148.03125 C 308.332031 168.753906 302.664062 188.871094 291.042969 204.589844 C 279.417969 220.304688 261.84375 231.605469 241.117188 234.707031 L 156.296875 247.398438 C 114.832031 253.601562 75.824219 224.75 69.621094 183.285156 L 68.210938 173.859375 C 65.113281 153.136719 70.78125 133.019531 82.398438 117.304688 C 94.027344 101.59375 111.605469 90.285156 132.324219 87.183594 L 217.144531 74.492188 C 258.609375 68.289062 297.617188 97.140625 303.820312 138.605469 Z M 272.320312 144.613281 L 273.351562 151.5 C 275.617188 166.644531 271.476562 181.351562 262.980469 192.835938 C 254.484375 204.324219 241.632812 212.585938 226.488281 214.851562 L 164.488281 224.128906 C 134.175781 228.664062 105.664062 207.574219 101.128906 177.261719 L 100.097656 170.371094 C 97.828125 155.21875 101.96875 140.515625 110.46875 129.035156 C 118.964844 117.550781 131.8125 109.289062 146.964844 107.019531 L 208.96875 97.742188 C 239.273438 93.21875 267.785156 114.308594 272.320312 144.613281 Z M 272.320312 144.613281 "/></g></g></g><g clip-rule="nonzero" clip-path="url(#e4d29891ab)"><g clip-rule="nonzero" clip-path="url(#1c106a4b02)"><g clip-rule="nonzero" clip-path="url(#3efb21e7d6)"><path style=" stroke:none;fill-rule:nonzero;fill:#1ae5be;fill-opacity:1;" d="M 218.652344 285.785156 C 222.347656 288.53125 225.007812 292.679688 225.742188 297.59375 C 226.476562 302.503906 225.148438 307.25 222.417969 310.957031 C 219.675781 314.664062 215.523438 317.320312 210.613281 318.054688 C 205.699219 318.789062 200.953125 317.464844 197.246094 314.722656 C 193.542969 311.988281 190.890625 307.828125 190.15625 302.917969 C 189.421875 298.003906 190.75 293.257812 193.480469 289.550781 C 196.214844 285.847656 200.375 283.1875 205.285156 282.453125 C 210.207031 281.726562 214.953125 283.050781 218.652344 285.785156 Z M 154.0625 149.816406 C 150.734375 148.703125 147.273438 148.492188 143.949219 149.0625 C 140.640625 149.632812 137.480469 150.980469 134.707031 153.007812 C 128.492188 157.550781 124.210938 165.472656 124.8125 175.542969 C 124.871094 176.546875 125.308594 177.398438 126.097656 178.023438 C 126.886719 178.648438 127.816406 178.886719 128.8125 178.722656 L 129.546875 178.59375 C 131.277344 178.304688 132.496094 176.773438 132.398438 175.027344 C 132.003906 167.808594 134.921875 162.25 139.175781 159.144531 C 141.003906 157.808594 143.070312 156.917969 145.214844 156.546875 C 147.335938 156.179688 149.546875 156.316406 151.683594 157.027344 C 156.882812 158.761719 161.679688 163.929688 163.992188 173.523438 C 164.410156 175.277344 166.109375 176.40625 167.886719 176.105469 L 168.605469 175.992188 C 169.578125 175.828125 170.355469 175.328125 170.902344 174.5 C 171.449219 173.675781 171.609375 172.769531 171.382812 171.804688 C 168.375 159.257812 161.5625 152.308594 154.0625 149.816406 Z M 235.078125 137.996094 C 231.835938 136.871094 228.410156 136.507812 225.089844 136.933594 C 221.742188 137.359375 218.496094 138.574219 215.636719 140.613281 C 209.195312 145.191406 204.714844 153.828125 205.511719 166.714844 C 205.570312 167.703125 205.996094 168.523438 206.761719 169.152344 C 207.527344 169.78125 208.414062 170.035156 209.394531 169.902344 L 210.113281 169.804688 C 211.902344 169.570312 213.199219 167.992188 213.082031 166.195312 C 212.488281 156.355469 215.558594 149.996094 220.023438 146.816406 C 221.859375 145.511719 223.933594 144.738281 226.070312 144.464844 C 228.226562 144.191406 230.464844 144.4375 232.605469 145.179688 C 237.582031 146.90625 242.003906 151.367188 243.734375 158.386719 C 244.152344 160.089844 245.765625 161.191406 247.503906 160.960938 L 248.242188 160.867188 C 249.246094 160.734375 250.054688 160.246094 250.625 159.40625 C 251.195312 158.578125 251.375 157.636719 251.128906 156.65625 C 248.761719 146.835938 242.351562 140.515625 235.078125 137.996094 Z M 235.078125 137.996094 "/></g></g></g></g></svg>